HIERARCHY
ROOT Hips
{
	OFFSET 0.000000 0.000000 0.000000
	CHANNELS 6 Xposition Yposition Zposition Xrotation Yrotation Zrotation
	JOINT LeftUpLeg_virtual
	{
		OFFSET 0.000000 0.000000 0.000000
		CHANNELS 3 Xrotation Yrotation Zrotation
		JOINT LeftUpLeg
		{
			OFFSET 11.394100 -6.187798 -0.413800
			CHANNELS 3 Xrotation Yrotation Zrotation
			JOINT LeftLeg
			{
				OFFSET 0.430247 -32.302673 3.732800
				CHANNELS 3 Xrotation Yrotation Zrotation
				JOINT LeftFoot
				{
					OFFSET -0.430247 -48.264931 -6.423300
					CHANNELS 3 Xrotation Yrotation Zrotation
					JOINT LeftToeBase
					{
						OFFSET 4.230900 -16.068199 23.438400
						CHANNELS 3 Xrotation Yrotation Zrotation
						JOINT LeftToe_End
						{
							OFFSET 4.510700 0.695400 19.974600
							CHANNELS 3 Xrotation Yrotation Zrotation
							End Site
							{
								OFFSET 0 0 0
							}
						}
					}
				}
			}
		}
	}
	JOINT RightUpLeg_virtual
	{
		OFFSET 0.000000 0.000000 0.000000
		CHANNELS 3 Xrotation Yrotation Zrotation
		JOINT RightUpLeg
		{
			OFFSET -11.333700 -6.187798 -0.413800
			CHANNELS 3 Xrotation Yrotation Zrotation
			JOINT RightLeg
			{
				OFFSET -0.430392 -32.302628 3.733000
				CHANNELS 3 Xrotation Yrotation Zrotation
				JOINT RightFoot
				{
					OFFSET 0.430392 -48.264973 -6.423500
					CHANNELS 3 Xrotation Yrotation Zrotation
					JOINT RightToeBase
					{
						OFFSET -4.230900 -16.068199 23.438400
						CHANNELS 3 Xrotation Yrotation Zrotation
						JOINT RightToe_End
						{
							OFFSET -4.510700 0.695400 19.974600
							CHANNELS 3 Xrotation Yrotation Zrotation
							End Site
							{
								OFFSET 0 0 0
							}
						}
					}
				}
			}
		}
	}
	JOINT Spine_virtual
	{
		OFFSET 0.000000 0.000000 0.000000
		CHANNELS 3 Xrotation Yrotation Zrotation
		JOINT Spine
		{
			OFFSET -0.002400 12.777504 0.315300
			CHANNELS 3 Xrotation Yrotation Zrotation
			JOINT Spine1
			{
				OFFSET -0.002067 5.816869 0.032633
				CHANNELS 3 Xrotation Yrotation Zrotation
				JOINT Spine1_split
				{
					OFFSET -0.002067 5.816869 0.032633
					CHANNELS 3 Xrotation Yrotation Zrotation
					JOINT Spine2
					{
						OFFSET -0.002067 5.816869 0.032633
						CHANNELS 3 Xrotation Yrotation Zrotation
						JOINT Neck_virtual
						{
							OFFSET 0.000000 0.000000 0.000000
							CHANNELS 3 Xrotation Yrotation Zrotation
							JOINT Neck
							{
								OFFSET -0.003700 21.199493 -0.826900
								CHANNELS 3 Xrotation Yrotation Zrotation
								JOINT Head
								{
									OFFSET 0.000000 20.442200 4.834800
									CHANNELS 3 Xrotation Yrotation Zrotation
									JOINT HeadTop_End
									{
										OFFSET 0.000000 34.668396 4.968400
										CHANNELS 3 Xrotation Yrotation Zrotation
										End Site
										{
											OFFSET 0 0 0
										}
									}
								}
							}
						}
						JOINT LeftShoulder_virtual
						{
							OFFSET 0.000000 0.000000 0.000000
							CHANNELS 3 Xrotation Yrotation Zrotation
							JOINT LeftShoulder
							{
								OFFSET 3.288150 8.794197 -1.372250
								CHANNELS 3 Xrotation Yrotation Zrotation
								JOINT LeftShoulder_split
								{
									OFFSET 3.288150 8.794197 -1.372250
									CHANNELS 3 Xrotation Yrotation Zrotation
									JOINT LeftArm
									{
										OFFSET 11.953299 -2.279007 -0.146200
										CHANNELS 3 Xrotation Yrotation Zrotation
										JOINT LeftForeArm
										{
											OFFSET 18.448900 0.000000 0.000000
											CHANNELS 3 Xrotation Yrotation Zrotation
											JOINT LeftHand
											{
												OFFSET 29.527798 0.000000 0.000000
												CHANNELS 3 Xrotation Yrotation Zrotation
												End Site
												{
													OFFSET 0 0 0
												}
											}
										}
									}
								}
							}
						}
						JOINT RightShoulder_virtual
						{
							OFFSET 0.000000 0.000000 0.000000
							CHANNELS 3 Xrotation Yrotation Zrotation
							JOINT RightShoulder
							{
								OFFSET -3.249400 8.794197 -1.372250
								CHANNELS 3 Xrotation Yrotation Zrotation
								JOINT RightShoulder_split
								{
									OFFSET -3.249400 8.794197 -1.372250
									CHANNELS 3 Xrotation Yrotation Zrotation
									JOINT RightArm
									{
										OFFSET -11.953299 -2.279007 -0.146200
										CHANNELS 3 Xrotation Yrotation Zrotation
										JOINT RightForeArm
										{
											OFFSET -18.448900 0.000000 0.000000
											CHANNELS 3 Xrotation Yrotation Zrotation
											JOINT RightHand
											{
												OFFSET -29.527802 0.000000 0.000000
												CHANNELS 3 Xrotation Yrotation Zrotation
												End Site
												{
													OFFSET 0 0 0
												}
											}
										}
									}
								}
							}
						}
					}
				}
			}
		}
	}
}
MOTION
Frames: 11
Frame Time: 0.03333333
1.599437 92.642792 1.540627 0.000000 0.000000 0.000000 -5.728758 -42.689840 -5.097895 -42.701421 -2.510937 16.394370 37.190930 -12.343472 1.021452 4.322092 0.388984 -3.413309 0.308917 -5.175873 -3.639016 0.000000 0.000000 0.000000 -8.441472 -39.961442 -5.219380 -3.672366 -13.646628 -14.683880 27.292217 -8.139051 -4.376563 -16.808621 -3.368702 26.839129 -2.329653 -0.177896 4.782924 0.000000 0.000000 0.000000 -6.095445 -42.986868 -4.896411 6.784289 5.055534 -1.018843 10.989777 9.437645 -3.290836 0.447297 -3.275873 0.781020 0.000000 0.000000 0.000000 11.464347 9.096780 -3.416133 -4.799761 -2.573808 -0.234202 -3.693132 23.770445 -1.387545 0.000000 0.000000 0.000000 11.788550 9.210800 -3.090484 2.245735 0.312592 -7.284331 -3.587633 -2.229508 -0.670634 -13.170130 4.176301 -62.383171 10.908655 -46.895112 6.683600 0.000000 0.000000 0.000000 11.361646 9.182245 -3.121943 2.883073 6.907106 9.260709 -1.302496 3.054589 1.435464 -0.899021 -25.361140 62.667853 -2.896311 44.707140 5.368649 0.000000 0.000000 0.000000 
1.324261 92.566475 1.135246 0.000000 0.000000 0.000000 -5.658870 -42.957341 -4.866051 -43.367026 -2.436834 15.538774 36.417995 -11.406541 0.986028 4.165627 0.579869 -2.414072 0.162667 -5.043889 -4.100078 0.000000 0.000000 0.000000 -8.303178 -39.700895 -5.111118 -3.484426 -13.950007 -14.485392 28.132772 -8.963441 -4.188737 -18.069177 -4.053220 25.262006 -0.639969 0.285182 4.484828 0.000000 0.000000 0.000000 -6.275734 -42.628546 -4.985984 6.971380 5.083671 -0.998418 11.054517 9.414946 -3.351824 0.842329 -3.202065 0.984462 0.000000 0.000000 0.000000 11.250570 9.031678 -3.408727 -5.003452 -2.288307 -0.561575 -3.517411 23.792863 -1.395633 0.000000 0.000000 0.000000 11.713188 9.126652 -3.191855 2.313299 0.325020 -7.154760 -3.400565 -2.816722 -0.531755 -13.201787 3.958405 -62.147352 10.921910 -47.720343 6.744586 0.000000 0.000000 0.000000 11.430782 9.174161 -3.113594 2.992730 6.921677 9.448877 -1.252658 3.068773 1.126727 -0.122250 -25.987997 62.566438 -2.497919 43.522700 5.218931 0.000000 0.000000 0.000000 
1.137520 92.392570 0.635227 0.000000 0.000000 0.000000 -5.484520 -42.503420 -4.546955 -44.513921 -2.581793 14.564731 36.049298 -10.724571 1.296520 5.308512 -0.042677 -2.924511 0.266288 -4.985478 -3.792921 0.000000 0.000000 0.000000 -8.077395 -39.330896 -4.917381 -3.679713 -13.940369 -14.555869 30.137677 -9.747702 -3.871176 -18.331620 -4.410508 24.573568 -2.136566 0.751340 3.711550 0.000000 0.000000 0.000000 -6.302438 -42.104660 -4.930245 7.325940 4.994555 -0.806865 11.060181 9.158050 -3.385320 1.145885 -2.711441 0.822463 0.000000 0.000000 0.000000 11.015107 8.769749 -3.416872 -5.607164 -1.905026 -0.941754 -3.173853 23.694782 -1.431565 0.000000 0.000000 0.000000 11.676920 8.832863 -3.251667 2.371740 0.179676 -7.196127 -3.247637 -3.387983 -0.453879 -12.967970 3.740460 -61.434615 11.130844 -48.421301 6.750154 0.000000 0.000000 0.000000 11.454225 8.970357 -3.092457 3.055574 6.921705 9.667382 -1.666850 3.300463 0.824870 0.858293 -26.135910 62.471594 -1.574439 42.693368 4.828151 0.000000 0.000000 0.000000 
0.994378 92.201363 0.199677 0.000000 0.000000 0.000000 -5.176066 -41.582076 -4.175533 -46.014715 -2.739592 13.620902 35.977376 -10.030851 1.825300 7.203396 -1.246928 -4.417303 0.189616 -5.012073 -2.548326 0.000000 0.000000 0.000000 -7.692312 -38.814377 -4.609950 -3.942469 -13.521876 -14.642365 32.237147 -10.466848 -3.577955 -17.752862 -4.458972 24.768375 -5.872715 1.221590 2.870120 0.000000 0.000000 0.000000 -6.149760 -41.471440 -4.698198 7.747903 4.829863 -0.527972 10.990515 8.718625 -3.397061 0.984873 -1.853389 0.582504 0.000000 0.000000 0.000000 10.802748 8.354586 -3.442428 -6.542707 -1.459162 -1.330543 -2.652456 23.382647 -1.433342 0.000000 0.000000 0.000000 11.687033 8.379210 -3.284997 2.417257 -0.076182 -7.434680 -3.330935 -3.775133 -0.515938 -12.440105 3.464553 -60.263770 11.450431 -48.756779 6.662066 0.000000 0.000000 0.000000 11.478227 8.598093 -3.077328 3.091497 6.894063 9.855945 -2.224605 3.683525 0.558276 1.971983 -25.424184 62.488506 -0.196338 42.338007 4.219754 0.000000 0.000000 0.000000 
0.941200 91.970856 -0.231503 0.000000 0.000000 0.000000 -4.640799 -40.345234 -3.724451 -47.791739 -2.575149 12.736190 36.178382 -8.818467 2.393124 9.014424 -2.468941 -5.887098 -0.218648 -5.151459 -0.563866 0.000000 0.000000 0.000000 -6.877594 -38.088113 -4.085230 -3.858763 -12.807575 -14.326209 33.171213 -11.603411 -3.425966 -16.957946 -4.445385 25.064837 -8.879037 1.792371 2.269292 0.000000 0.000000 0.000000 -5.701264 -40.620699 -4.249158 8.107549 4.635767 -0.288479 10.893452 8.180788 -3.389768 0.781365 -1.010039 0.488429 0.000000 0.000000 0.000000 10.633643 7.862468 -3.484263 -7.765940 -1.009988 -1.705439 -2.023034 22.780759 -1.361904 0.000000 0.000000 0.000000 11.747066 7.852065 -3.311388 2.423316 -0.420764 -7.782159 -3.583867 -4.181947 -0.757035 -11.795015 2.968196 -58.647959 11.827816 -48.601376 6.492214 0.000000 0.000000 0.000000 11.542937 8.148317 -3.081763 3.091048 6.859927 9.976570 -2.564142 4.066069 0.381100 3.002539 -23.888733 62.617276 1.541613 42.120076 3.399967 0.000000 0.000000 0.000000 
0.925553 91.671944 -0.549980 0.000000 0.000000 0.000000 -3.780450 -38.936921 -3.103642 -49.537374 -1.764722 11.891598 36.793150 -6.736333 2.845254 10.022681 -3.151906 -6.572502 -0.822709 -5.407640 1.589069 0.000000 0.000000 0.000000 -5.588934 -36.931212 -3.313923 -3.140130 -12.066777 -13.341000 32.040151 -13.341171 -3.481537 -16.435366 -4.526916 25.012896 -9.620438 2.515885 2.050256 0.000000 0.000000 0.000000 -4.846573 -39.396381 -3.525714 8.299480 4.448266 -0.221036 10.798222 7.628028 -3.380501 0.635774 -0.518847 0.341836 0.000000 0.000000 0.000000 10.535172 7.376019 -3.518992 -9.269747 -0.603887 -2.053066 -1.390086 21.890980 -1.188827 0.000000 0.000000 0.000000 11.815337 7.339230 -3.340920 2.372497 -0.858772 -8.125534 -3.781414 -4.599185 -1.134586 -11.328079 2.142834 -56.676073 12.250913 -47.832081 6.277516 0.000000 0.000000 0.000000 11.675108 7.695928 -3.098112 3.037999 6.849357 10.002789 -2.737645 4.088340 0.338024 3.574470 -21.658919 62.693296 3.433260 41.653598 2.411339 0.000000 0.000000 0.000000 
0.790649 91.322952 -0.814056 0.000000 0.000000 0.000000 -2.520181 -37.353854 -2.294533 -51.158913 -0.298016 10.966220 38.222589 -3.645806 3.115063 9.951761 -2.949814 -6.080205 -1.306859 -5.640200 3.368350 0.000000 0.000000 0.000000 -3.778829 -35.260165 -2.282945 -1.621010 -11.663765 -11.670573 29.055300 -15.550896 -3.824772 -15.948150 -4.579585 24.627015 -8.927597 3.501744 2.121532 0.000000 0.000000 0.000000 -3.683658 -37.662315 -2.586089 8.281869 4.296048 -0.380293 10.713792 7.141041 -3.362951 0.473077 -0.325865 0.249244 0.000000 0.000000 0.000000 10.485079 6.960095 -3.512945 -11.067026 -0.247555 -2.429780 -0.863404 20.758285 -0.915322 0.000000 0.000000 0.000000 11.841546 6.920033 -3.379441 2.262390 -1.408732 -8.451166 -3.914982 -4.870324 -1.394673 -11.509430 0.928024 -54.440310 12.874424 -46.532846 6.149515 0.000000 0.000000 0.000000 11.880941 7.313612 -3.120224 2.962363 6.927115 9.875862 -2.789018 3.785130 0.303275 3.322314 -18.985810 62.669356 5.142564 41.017424 1.405888 0.000000 0.000000 0.000000 
0.609074 90.986084 -0.924809 0.000000 0.000000 0.000000 -0.853796 -35.521280 -1.352148 -52.647125 1.701196 9.816872 40.730669 0.308941 3.091270 8.829959 -1.838084 -4.300097 -1.507469 -5.727671 4.395047 0.000000 0.000000 0.000000 -1.646831 -33.174707 -1.148967 0.404550 -11.691239 -9.486507 25.183244 -17.986586 -4.408138 -14.897669 -4.271308 24.456182 -8.349097 4.752689 2.390545 0.000000 0.000000 0.000000 -2.197381 -35.326370 -1.535381 8.069023 4.175520 -0.740703 10.648220 6.756062 -3.297228 0.498800 -0.402273 0.385382 0.000000 0.000000 0.000000 10.433017 6.635416 -3.438871 -13.152990 0.110298 -2.902258 -0.505618 19.419105 -0.576294 0.000000 0.000000 0.000000 11.783414 6.615997 -3.392278 2.099187 -2.067738 -8.684966 -3.894438 -5.102376 -1.463423 -12.772887 -0.869140 -52.005190 13.798191 -45.039289 6.217346 0.000000 0.000000 0.000000 12.075896 7.027158 -3.112483 2.864040 7.122144 9.588395 -2.747224 3.386192 0.248088 1.762492 -16.287134 62.490644 6.445878 40.755718 0.459834 0.000000 0.000000 0.000000 
0.458407 90.825386 -0.660507 0.000000 0.000000 0.000000 1.017407 -33.509236 -0.418455 -53.856335 3.917165 8.398232 44.213191 4.402006 2.741660 6.850736 -0.257043 -1.754880 -1.457624 -5.593789 4.530812 0.000000 0.000000 0.000000 0.485002 -30.766625 -0.150052 2.659687 -12.097116 -7.064812 21.494542 -20.305157 -5.148748 -12.994123 -3.415243 24.714594 -8.862288 6.138579 3.132503 0.000000 0.000000 0.000000 -0.400363 -32.521020 -0.516315 7.723908 4.073904 -1.209722 10.567636 6.465978 -3.161327 0.505587 -0.459070 0.539149 0.000000 0.000000 0.000000 10.347303 6.383779 -3.277133 -15.457572 0.563295 -3.568942 -0.362678 17.931750 -0.171867 0.000000 0.000000 0.000000 11.604922 6.417633 -3.319232 1.893016 -2.863444 -8.869167 -3.764072 -5.095336 -1.416848 -15.142343 -3.538709 -49.587467 15.024707 -43.634100 6.506130 0.000000 0.000000 0.000000 12.163072 6.804037 -3.030008 2.738119 7.516099 9.109754 -2.481322 2.972649 0.222710 -1.293052 -13.471747 62.246273 7.297971 41.440055 -0.491042 0.000000 0.000000 0.000000 
0.346063 90.868690 0.192673 0.000000 0.000000 0.000000 2.856149 -31.132808 0.320866 -55.019236 5.987910 6.746399 48.048731 7.978347 2.138534 4.381382 1.294977 0.971057 -0.875441 -5.182421 3.781393 0.000000 0.000000 0.000000 2.493393 -28.132388 0.578094 4.765329 -12.661909 -4.656241 18.896980 -22.472215 -5.889570 -10.606827 -2.286324 25.026710 -10.906423 7.330785 4.764472 0.000000 0.000000 0.000000 1.527051 -29.323887 0.277103 7.315357 3.959958 -1.650048 10.402242 6.233650 -2.945367 0.550058 -0.399064 0.690686 0.000000 0.000000 0.000000 10.191147 6.162681 -3.009343 -17.838980 1.130796 -4.444828 -0.402073 16.319357 0.316376 0.000000 0.000000 0.000000 11.289832 6.279740 -3.137447 1.682728 -3.774407 -9.099633 -3.706373 -4.902573 -1.276895 -18.357173 -7.239803 -47.427065 16.437656 -42.562092 7.008521 0.000000 0.000000 0.000000 12.100582 6.608401 -2.856798 2.638480 8.211605 8.400496 -2.060142 2.831463 0.297112 -5.718164 -10.379502 62.185608 7.848459 43.200680 -1.558582 0.000000 0.000000 0.000000 
0.334986 91.106293 1.630383 0.000000 0.000000 0.000000 4.584099 -28.274350 0.821049 -56.235953 7.701839 5.000793 51.357388 10.541612 1.473003 2.006034 2.398460 3.199636 0.234115 -4.538735 2.270532 0.000000 0.000000 0.000000 4.228262 -25.203953 0.990117 6.219535 -13.188659 -2.678745 17.941619 -24.639935 -6.475013 -8.285229 -1.400859 24.632836 -14.352647 7.848441 7.558932 0.000000 0.000000 0.000000 3.517369 -25.942575 0.829681 6.916331 3.792751 -1.988911 10.126427 6.009936 -2.680964 0.613820 -0.190276 0.804789 0.000000 0.000000 0.000000 9.941182 5.927971 -2.657963 -20.156933 1.797992 -5.502411 -0.554294 14.645888 0.939772 0.000000 0.000000 0.000000 10.870217 6.142628 -2.847061 1.483939 -4.745292 -9.369408 -3.818623 -4.534387 -1.350595 -21.918273 -11.872860 -45.685749 17.732494 -41.855560 7.575169 0.000000 0.000000 0.000000 11.857325 6.397203 -2.596079 2.561527 9.262356 7.514770 -1.704693 2.938142 0.528519 -11.262214 -6.758509 62.315607 8.325179 45.425017 -2.853413 0.000000 0.000000 0.000000 
